<svg xmlns="http://www.w3.org/2000/svg" viewBox="0 0 1100 400">
  <defs>
    <linearGradient id="bg" x1="0%" y1="0%" x2="100%" y2="100%">
      <stop offset="0%" style="stop-color:#0a1628"/>
      <stop offset="100%" style="stop-color:#0d1f3c"/>
    </linearGradient>
    <linearGradient id="cyan" x1="0%" y1="0%" x2="100%" y2="100%">
      <stop offset="0%" style="stop-color:#00d4ff"/>
      <stop offset="100%" style="stop-color:#0099cc"/>
    </linearGradient>
    <linearGradient id="purple" x1="0%" y1="0%" x2="100%" y2="100%">
      <stop offset="0%" style="stop-color:#7c3aed"/>
      <stop offset="100%" style="stop-color:#5b21b6"/>
    </linearGradient>
    <linearGradient id="green" x1="0%" y1="0%" x2="100%" y2="100%">
      <stop offset="0%" style="stop-color:#10b981"/>
      <stop offset="100%" style="stop-color:#059669"/>
    </linearGradient>
    <linearGradient id="orange" x1="0%" y1="0%" x2="100%" y2="100%">
      <stop offset="0%" style="stop-color:#f59e0b"/>
      <stop offset="100%" style="stop-color:#d97706"/>
    </linearGradient>
    <linearGradient id="red" x1="0%" y1="0%" x2="100%" y2="100%">
      <stop offset="0%" style="stop-color:#ef4444"/>
      <stop offset="100%" style="stop-color:#dc2626"/>
    </linearGradient>
    <filter id="glow">
      <feGaussianBlur stdDeviation="2" result="coloredBlur"/>
      <feMerge>
        <feMergeNode in="coloredBlur"/>
        <feMergeNode in="SourceGraphic"/>
      </feMerge>
    </filter>
  </defs>
  
  <!-- Background -->
  <rect width="1100" height="400" fill="url(#bg)"/>
  
  <!-- Title -->
  <text x="550" y="35" font-family="Segoe UI, sans-serif" font-size="24" font-weight="bold" fill="#00d4ff" text-anchor="middle">ArcOps MCP Architecture</text>
  <text x="550" y="55" font-family="Segoe UI, sans-serif" font-size="12" fill="#5a7a9a" text-anchor="middle">Model Context Protocol for Azure Local &amp; AKS Arc Diagnostics</text>
  
  <!-- Connection Lines -->
  <!-- 1: User → LLM -->
  <line x1="130" y1="160" x2="200" y2="160" stroke="#00d4ff" stroke-width="3" filter="url(#glow)"/>
  <polygon points="200,156 200,164 210,160" fill="#00d4ff"/>
  <circle cx="165" cy="145" r="12" fill="#0a1628" stroke="#00d4ff" stroke-width="2"/>
  <text x="165" y="149" font-family="Segoe UI, sans-serif" font-size="10" font-weight="bold" fill="#00d4ff" text-anchor="middle">1</text>
  
  <!-- 2: LLM → MCP -->
  <line x1="340" y1="160" x2="410" y2="160" stroke="#7c3aed" stroke-width="3" filter="url(#glow)"/>
  <polygon points="410,156 410,164 420,160" fill="#7c3aed"/>
  <circle cx="375" cy="145" r="12" fill="#0a1628" stroke="#7c3aed" stroke-width="2"/>
  <text x="375" y="149" font-family="Segoe UI, sans-serif" font-size="10" font-weight="bold" fill="#7c3aed" text-anchor="middle">2</text>
  <rect x="355" y="170" width="70" height="16" rx="3" fill="rgba(124,58,237,0.2)" stroke="rgba(124,58,237,0.4)"/>
  <text x="390" y="181" font-family="Segoe UI, sans-serif" font-size="8" fill="#7c3aed" text-anchor="middle">MCP Protocol</text>
  
  <!-- 3: MCP → Tools (branching) -->
  <path d="M555,160 L600,160 L600,95 L665,95" stroke="#10b981" stroke-width="3" fill="none" filter="url(#glow)"/>
  <path d="M555,160 L665,160" stroke="#10b981" stroke-width="3" fill="none" filter="url(#glow)"/>
  <path d="M555,160 L600,160 L600,225 L665,225" stroke="#10b981" stroke-width="3" fill="none" filter="url(#glow)"/>
  <polygon points="665,91 665,99 675,95" fill="#10b981"/>
  <polygon points="665,156 665,164 675,160" fill="#10b981"/>
  <polygon points="665,221 665,229 675,225" fill="#10b981"/>
  <circle cx="575" cy="145" r="12" fill="#0a1628" stroke="#10b981" stroke-width="2"/>
  <text x="575" y="149" font-family="Segoe UI, sans-serif" font-size="10" font-weight="bold" fill="#10b981" text-anchor="middle">3</text>
  
  <!-- 4: Tools → Data (branching) -->
  <path d="M800,95 L845,95 L845,115 L900,115" stroke="#f59e0b" stroke-width="3" fill="none" filter="url(#glow)"/>
  <path d="M800,160 L900,160" stroke="#f59e0b" stroke-width="3" fill="none" filter="url(#glow)"/>
  <path d="M800,225 L845,225 L845,205 L900,205" stroke="#f59e0b" stroke-width="3" fill="none" filter="url(#glow)"/>
  <polygon points="900,111 900,119 910,115" fill="#f59e0b"/>
  <polygon points="900,156 900,164 910,160" fill="#f59e0b"/>
  <polygon points="900,201 900,209 910,205" fill="#f59e0b"/>
  <circle cx="820" cy="145" r="12" fill="#0a1628" stroke="#f59e0b" stroke-width="2"/>
  <text x="820" y="149" font-family="Segoe UI, sans-serif" font-size="10" font-weight="bold" fill="#f59e0b" text-anchor="middle">4</text>
  
  <!-- Node: User -->
  <rect x="20" y="115" width="110" height="90" rx="10" fill="rgba(20,40,70,0.8)" stroke="rgba(100,150,200,0.3)"/>
  <rect x="20" y="115" width="110" height="3" rx="2" fill="#00d4ff"/>
  <rect x="30" y="128" width="28" height="28" rx="6" fill="url(#cyan)"/>
  <text x="44" y="147" font-family="Segoe UI, sans-serif" font-size="14">👤</text>
  <text x="65" y="138" font-family="Segoe UI, sans-serif" font-size="11" font-weight="600" fill="white">User</text>
  <text x="65" y="150" font-family="Segoe UI, sans-serif" font-size="8" fill="#5a7a9a">Natural language</text>
  <text x="30" y="175" font-family="Segoe UI, sans-serif" font-size="8" fill="#8aa8c8" font-style="italic">"test-cluster gives</text>
  <text x="30" y="185" font-family="Segoe UI, sans-serif" font-size="8" fill="#8aa8c8" font-style="italic">validation failed"</text>
  
  <!-- Node: LLM -->
  <rect x="215" y="100" width="125" height="120" rx="10" fill="rgba(20,40,70,0.8)" stroke="rgba(100,150,200,0.3)"/>
  <rect x="215" y="100" width="125" height="3" rx="2" fill="#7c3aed"/>
  <rect x="225" y="113" width="28" height="28" rx="6" fill="url(#purple)"/>
  <text x="239" y="132" font-family="Segoe UI, sans-serif" font-size="14">🧠</text>
  <text x="260" y="123" font-family="Segoe UI, sans-serif" font-size="11" font-weight="600" fill="white">LLM Engine</text>
  <text x="260" y="135" font-family="Segoe UI, sans-serif" font-size="7" fill="#5a7a9a">Foundry Local / OpenAI</text>
  <text x="225" y="160" font-family="Segoe UI, sans-serif" font-size="8" fill="#8aa8c8">Analyzes intent,</text>
  <text x="225" y="170" font-family="Segoe UI, sans-serif" font-size="8" fill="#8aa8c8">selects tools</text>
  <rect x="225" y="180" width="45" height="14" rx="4" fill="rgba(124,58,237,0.4)" stroke="rgba(124,58,237,0.6)"/>
  <text x="247" y="190" font-family="Segoe UI, sans-serif" font-size="7" fill="white" text-anchor="middle">Qwen 2.5</text>
  <rect x="275" y="180" width="30" height="14" rx="4" fill="rgba(124,58,237,0.2)" stroke="rgba(124,58,237,0.4)"/>
  <text x="290" y="190" font-family="Segoe UI, sans-serif" font-size="7" fill="#a78bfa" text-anchor="middle">Phi-4</text>
  <rect x="225" y="198" width="30" height="14" rx="4" fill="rgba(124,58,237,0.2)" stroke="rgba(124,58,237,0.4)"/>
  <text x="240" y="208" font-family="Segoe UI, sans-serif" font-size="7" fill="#a78bfa" text-anchor="middle">Llama</text>
  
  <!-- Node: MCP Server -->
  <rect x="425" y="115" width="130" height="90" rx="10" fill="rgba(20,40,70,0.8)" stroke="rgba(100,150,200,0.3)"/>
  <rect x="425" y="115" width="130" height="3" rx="2" fill="#10b981"/>
  <rect x="435" y="128" width="28" height="28" rx="6" fill="url(#green)"/>
  <text x="449" y="147" font-family="Segoe UI, sans-serif" font-size="14">🔌</text>
  <text x="470" y="138" font-family="Segoe UI, sans-serif" font-size="10" font-weight="600" fill="white">ArcOps MCP</text>
  <text x="470" y="150" font-family="Segoe UI, sans-serif" font-size="10" font-weight="600" fill="white">Server</text>
  <text x="470" y="162" font-family="Segoe UI, sans-serif" font-size="8" fill="#5a7a9a">Tool Router</text>
  <text x="435" y="185" font-family="Segoe UI, sans-serif" font-size="8" fill="#8aa8c8">Routes tool calls</text>
  <text x="435" y="195" font-family="Segoe UI, sans-serif" font-size="8" fill="#8aa8c8">to handlers</text>
  
  <!-- Node: Tools (3 small cards) -->
  <rect x="680" y="75" width="115" height="40" rx="8" fill="rgba(20,40,70,0.8)" stroke="rgba(100,150,200,0.3)"/>
  <rect x="680" y="75" width="115" height="2" rx="1" fill="#f59e0b"/>
  <rect x="688" y="82" width="22" height="22" rx="5" fill="url(#orange)"/>
  <text x="699" y="97" font-family="Segoe UI, sans-serif" font-size="11">📚</text>
  <text x="715" y="92" font-family="Segoe UI, sans-serif" font-size="9" font-weight="600" fill="white">TSG Search</text>
  <text x="715" y="103" font-family="Segoe UI, sans-serif" font-size="7" fill="#5a7a9a">149 guides</text>
  
  <rect x="680" y="140" width="115" height="40" rx="8" fill="rgba(20,40,70,0.8)" stroke="rgba(100,150,200,0.3)"/>
  <rect x="680" y="140" width="115" height="2" rx="1" fill="#f59e0b"/>
  <rect x="688" y="147" width="22" height="22" rx="5" fill="url(#orange)"/>
  <text x="699" y="162" font-family="Segoe UI, sans-serif" font-size="11">✅</text>
  <text x="715" y="157" font-family="Segoe UI, sans-serif" font-size="9" font-weight="600" fill="white">EnvCheck</text>
  <text x="715" y="168" font-family="Segoe UI, sans-serif" font-size="7" fill="#5a7a9a">AzStackHci module</text>
  
  <rect x="680" y="205" width="115" height="40" rx="8" fill="rgba(20,40,70,0.8)" stroke="rgba(100,150,200,0.3)"/>
  <rect x="680" y="205" width="115" height="2" rx="1" fill="#f59e0b"/>
  <rect x="688" y="212" width="22" height="22" rx="5" fill="url(#orange)"/>
  <text x="699" y="227" font-family="Segoe UI, sans-serif" font-size="11">☸️</text>
  <text x="715" y="222" font-family="Segoe UI, sans-serif" font-size="9" font-weight="600" fill="white">AKS Arc</text>
  <text x="715" y="233" font-family="Segoe UI, sans-serif" font-size="7" fill="#5a7a9a">Cluster validation</text>
  
  <!-- Node: Data Sources (3 small cards) -->
  <rect x="915" y="95" width="115" height="40" rx="8" fill="rgba(20,40,70,0.8)" stroke="rgba(100,150,200,0.3)"/>
  <rect x="915" y="95" width="115" height="2" rx="1" fill="#ef4444"/>
  <rect x="923" y="102" width="22" height="22" rx="5" fill="url(#red)"/>
  <text x="934" y="117" font-family="Segoe UI, sans-serif" font-size="11">📖</text>
  <text x="950" y="112" font-family="Segoe UI, sans-serif" font-size="9" font-weight="600" fill="white">GitHub TSGs</text>
  <text x="950" y="123" font-family="Segoe UI, sans-serif" font-size="6" fill="#5a7a9a">Azure/AzureLocal-...</text>
  
  <rect x="915" y="140" width="115" height="40" rx="8" fill="rgba(20,40,70,0.8)" stroke="rgba(100,150,200,0.3)"/>
  <rect x="915" y="140" width="115" height="2" rx="1" fill="#ef4444"/>
  <rect x="923" y="147" width="22" height="22" rx="5" fill="url(#red)"/>
  <text x="934" y="162" font-family="Segoe UI, sans-serif" font-size="11">🖥️</text>
  <text x="950" y="157" font-family="Segoe UI, sans-serif" font-size="9" font-weight="600" fill="white">Azure Local</text>
  <text x="950" y="168" font-family="Segoe UI, sans-serif" font-size="7" fill="#5a7a9a">Cluster APIs</text>
  
  <rect x="915" y="185" width="115" height="40" rx="8" fill="rgba(20,40,70,0.8)" stroke="rgba(100,150,200,0.3)"/>
  <rect x="915" y="185" width="115" height="2" rx="1" fill="#ef4444"/>
  <rect x="923" y="192" width="22" height="22" rx="5" fill="url(#red)"/>
  <text x="934" y="207" font-family="Segoe UI, sans-serif" font-size="11">☸️</text>
  <text x="950" y="202" font-family="Segoe UI, sans-serif" font-size="9" font-weight="600" fill="white">AKS Arc</text>
  <text x="950" y="213" font-family="Segoe UI, sans-serif" font-size="7" fill="#5a7a9a">Kubernetes APIs</text>
  
  <!-- Legend -->
  <rect x="180" y="280" width="740" height="50" rx="8" fill="rgba(20,40,70,0.5)"/>
  <line x1="210" y1="305" x2="240" y2="305" stroke="#00d4ff" stroke-width="3"/>
  <text x="250" y="309" font-family="Segoe UI, sans-serif" font-size="10" fill="#5a7a9a">① User Query</text>
  <line x1="350" y1="305" x2="380" y2="305" stroke="#7c3aed" stroke-width="3"/>
  <text x="390" y="309" font-family="Segoe UI, sans-serif" font-size="10" fill="#5a7a9a">② MCP Protocol</text>
  <line x1="500" y1="305" x2="530" y2="305" stroke="#10b981" stroke-width="3"/>
  <text x="540" y="309" font-family="Segoe UI, sans-serif" font-size="10" fill="#5a7a9a">③ Tool Routing</text>
  <line x1="650" y1="305" x2="680" y2="305" stroke="#f59e0b" stroke-width="3"/>
  <text x="690" y="309" font-family="Segoe UI, sans-serif" font-size="10" fill="#5a7a9a">④ Data Access</text>
  
  <!-- Animated dots (CSS animations work in browsers) -->
  <style>
    @keyframes flow1 { 0% { cx: 130; } 100% { cx: 200; } }
    @keyframes flow2 { 0% { cx: 340; } 100% { cx: 410; } }
    .dot1 { animation: flow1 2s ease-in-out infinite; }
    .dot2 { animation: flow2 2s ease-in-out infinite; }
  </style>
  <circle class="dot1" cx="130" cy="160" r="5" fill="#00d4ff" filter="url(#glow)">
    <animate attributeName="cx" from="130" to="200" dur="2s" repeatCount="indefinite"/>
  </circle>
  <circle class="dot2" cx="340" cy="160" r="5" fill="#7c3aed" filter="url(#glow)">
    <animate attributeName="cx" from="340" to="410" dur="2s" repeatCount="indefinite" begin="0.3s"/>
  </circle>
</svg>
